<svg version="1.1" xmlns="http://www.w3.org/2000/svg" xmlns:xlink="http://www.w3.org/1999/xlink" width="147.15568" height="147.15568" viewBox="0,0,147.15568,147.15568"><defs><linearGradient x1="246.42216" y1="180.00142" x2="393.57784" y2="180.00142" gradientUnits="userSpaceOnUse" id="color-1"><stop offset="0" stop-color="#8dc63f"/><stop offset="1" stop-color="#006838"/></linearGradient><radialGradient cx="320" cy="180.00142" r="60.18029" gradientUnits="userSpaceOnUse" id="color-2"><stop offset="0" stop-color="#d7df23"/><stop offset="1" stop-color="#009444"/></radialGradient></defs><g transform="translate(-246.42216,-106.42216)"><g data-paper-data="{&quot;isPaintingLayer&quot;:true}" fill-rule="nonzero" stroke="none" stroke-width="1" stroke-linecap="butt" stroke-linejoin="miter" stroke-miterlimit="10" stroke-dasharray="" stroke-dashoffset="0" style="mix-blend-mode: normal"><path d="M393.57784,180c0,40.56887 -33.00543,73.57784 -73.57784,73.57784c-40.57064,0 -73.57784,-33.00897 -73.57784,-73.57784c0,-40.57064 33.00543,-73.57784 73.57784,-73.57784c40.57241,0 73.57784,33.00897 73.57784,73.57784z" fill="url(#color-1)"/><path d="M259.81865,180.00178c0,-33.23724 26.9441,-60.18136 60.18135,-60.18136c33.23725,0 60.18135,26.94411 60.18135,60.18136c0,33.23725 -26.9441,60.18135 -60.18135,60.18135c-33.23725,0 -60.18135,-26.9441 -60.18135,-60.18135z" fill="url(#color-2)"/><text transform="translate(280.16004,162.69375) scale(0.5,0.5)" font-size="40" xml:space="preserve" fill="#000000" fill-rule="nonzero" stroke="none" stroke-width="1" stroke-linecap="butt" stroke-linejoin="miter" stroke-miterlimit="10" stroke-dasharray="" stroke-dashoffset="0" font-family="Sans Serif" font-weight="normal" text-anchor="start" style="mix-blend-mode: normal"><tspan x="0" dy="0">Visit my</tspan><tspan x="0" dy="46.150000000000006px">socials!</tspan><tspan x="0" dy="46.150000000000006px"> </tspan></text><text transform="translate(267.12186,204.07093) scale(0.3097,0.3097)" font-size="40" xml:space="preserve" fill="#000000" fill-rule="nonzero" stroke="none" stroke-width="1" stroke-linecap="butt" stroke-linejoin="miter" stroke-miterlimit="10" stroke-dasharray="" stroke-dashoffset="0" font-family="Sans Serif" font-weight="normal" text-anchor="start" style="mix-blend-mode: normal"><tspan x="0" dy="0">linktr.ee/dbshorts</tspan></text></g></g></svg>