<svg version="1.1" xmlns="http://www.w3.org/2000/svg" xmlns:xlink="http://www.w3.org/1999/xlink" width="89.6729" height="101.01765" viewBox="0,0,89.6729,101.01765"><g transform="translate(-197.8271,-187.62203)"><g data-paper-data="{&quot;isPaintingLayer&quot;:true}" stroke-miterlimit="10" stroke-dasharray="" stroke-dashoffset="0" style="mix-blend-mode: normal"><g fill-rule="evenodd"><path d="M225.6328,257.74752c0.54386,0.71008 1.67767,2.26394 -1.9694,4.26866c-3.64707,2.00472 -10.1562,-0.38927 -10.87533,-0.73979c-2.83041,-1.26837 -6.24624,-2.93333 -9.40823,-6.03201c-9.21402,-8.94102 -3.56418,-20.76046 0.86165,-20.93938c4.33594,-0.22273 2.31508,7.80323 5.11212,14.61767c1.19344,3.02914 3.44974,5.01889 5.38804,6.5199c2.79338,2.02904 10.30121,1.46117 10.89115,2.30496z" fill="#ffab19" stroke="#001026" stroke-width="1.2" stroke-linecap="round" stroke-linejoin="round"/><path d="M206.88901,239.60034c0.25525,3.12807 1.37688,7.90216 1.37688,7.90216c0,0 -2.93161,-2.43016 -5.56416,-1.82214c-2.09773,0.42372 -2.70209,2.57657 -2.82901,3.29343c-0.59898,-1.73817 -1.24856,-4.05723 -0.61395,-7.64154c0.63461,-3.58431 3.37374,-6.92155 5.43443,-6.5846c1.97306,0.51673 1.76529,2.08416 2.1958,4.85268z" fill="#ffffff" stroke="none" stroke-width="1" stroke-linecap="butt" stroke-linejoin="miter"/></g><path d="M235.2041,262.74726c-1.0171,1.90932 -4.39418,8.72073 -10.16832,14.66374l-0.30495,0.2775c-0.30495,0.2775 -0.24433,0.81259 0.12125,1.07019c2.63384,1.30879 7.63728,4.06842 3.59813,8.17028c-3.863,4.00715 -19.25971,-3.72339 -17.31267,-8.97116c1.01047,-2.13283 2.83925,-2.32134 3.82136,-2.39524c0.5351,-0.06063 0.97548,-0.2974 1.3685,-0.62226c0.86749,-0.92057 2.42633,-2.66701 3.49742,-4.26475c2.74545,-3.97397 3.20002,-5.24022 4.2512,-7.50848c1.05119,-2.26826 3.35054,-7.70544 8.12475,-6.63916c4.09705,0.86268 3.93234,4.35737 3.00331,6.21933z" fill="#ffab19" fill-rule="evenodd" stroke="#001026" stroke-width="1.2" stroke-linecap="round" stroke-linejoin="round"/><path d="M245.6,247.82127c0.5,0.4 6.6,7.6 8.6,5.8c2.4,-2.1 5.7,-6.2 9.3,-2.9c3.6,3.3 -3.2,8.9 -6.1,10.4c-6.9,3.1 -12.5,-2.8 -13.7,-4.4c-1.2,-1.6 -3.3,-4.3 -3.3,-6.9c0.1,-2.8 3.5,-3.5 5.2,-2z" fill="#ffab19" fill-rule="evenodd" stroke="#001026" stroke-width="1.2" stroke-linecap="round" stroke-linejoin="round"/><g fill-rule="evenodd"><path d="M243.16128,271.12127c2.1,1.9 4.79596,5.8 4.79596,5.8c0,0 9.22255,-2.5 9.22255,4.7c0,4.3 -7.2,5.3 -16.9,4.4c-0.6,-0.1 -1.2,-0.3 -1.7,-0.7c-2.2,-1.9 1.02021,-7.5 -2.97979,-11.4c-5.9,-5.8 -10.8,-9.6 -10.8,-9.6c-8.5,-8.3 -1.6,-11.8 1.1,-16.6c2.5,-4.1 3.6,-3.3 9.6,-2.1c3.4,0.5 5.4,0.8 7.6,0.7c3.3,-0.1 2.7,4.7 1.8,7.2c0,0 -1.4,3.7 -2.7,5.6c-1.6,2.3 -2.8,3.8 -4,4.7z" fill="#ffab19" stroke="#001026" stroke-width="1.2" stroke-linecap="round" stroke-linejoin="round"/><path d="M237.3,263.72127c0,0 -1.5,-1.2 -3.1,-2.7c-2,-1.8 -4,-3.3 -2,-6.4c1.8,-2.4 3.5,-5.6 8,-2.7c4.3,2.7 2.4,5.2 2.4,5.2c-2.2,4.5 -5.3,6.6 -5.3,6.6z" fill="#ffffff" stroke="none" stroke-width="1" stroke-linecap="butt" stroke-linejoin="miter"/></g><path d="M220.06693,246.1378c1.23619,-0.41454 3.11267,-0.82537 4.91144,-1.29913c2.97204,-0.81057 8.34613,-1.09188 6.5992,3.92691c-1.35091,4.05279 -5.7923,5.08913 -10.90731,6.48079c-2.70555,0.64031 -5.89596,1.40277 -7.73915,-1.24726c-2.09117,-2.97943 -6.78059,-13.07989 -0.50342,-15.58931c4.95955,-1.5175 5.54066,3.32733 6.33272,6.79901c0.19986,0.54777 0.72914,0.84757 1.30652,0.92899z" data-paper-data="{&quot;index&quot;:null}" fill="#ffab19" fill-rule="evenodd" stroke="#001026" stroke-width="1.2" stroke-linecap="round" stroke-linejoin="round"/><path d="M253.7,188.12127c0.3,-0.2 0.8,-0.1 0.9,0.3l2.6,10.7c0,0 6.4,4.7 8.3,8c3.2,5.5 3.3,10 3.3,10c0,0 7.1,2.1 8.3,7.8c1.2,5.7 -3.2,16.5 -22,20.2c-18.8,3.7 -33.9,-1.4 -41,-12.8c-7.1,-11.4 4.1,-25 3.5,-24.2l-2.1,-17.9c-0.1,-0.4 0.4,-0.7 0.8,-0.5l12.1,7.9c0,0 4.5,-1.7 9.2,-1.9c2.8,-0.2 5.2,0 7.5,0.4z" fill="#ffab19" fill-rule="evenodd" stroke="#001026" stroke-width="1.2" stroke-linecap="butt" stroke-linejoin="miter"/><path d="M268.5,217.52127c0,0 6.9,1.8 8.1,7.5c1.2,5.7 -3.6,16 -22.2,19.6c-24.2,5 -35.7,-9.4 -29,-20c6.7,-10.7 18.2,-1.6 26.6,-2.2c7.2,-0.5 8,-6.8 16.5,-4.9z" fill="#ffffff" fill-rule="evenodd" stroke="none" stroke-width="1" stroke-linecap="butt" stroke-linejoin="miter"/><path d="M237,228.22127c0,-0.4 0.4,-0.7 0.8,-0.6c1.9,0.7 7.3,2.3 13.3,2.7c5.4,0.3 8.6,0 10.1,-0.3c0.5,-0.1 0.9,0.4 0.7,0.9c-0.9,2.7 -4.7,10.2 -15.2,9.6c-9.1,-1 -10,-7.4 -9.7,-12.3z" fill="#ff0000" fill-rule="evenodd" stroke="#001026" stroke-width="1.2" stroke-linecap="round" stroke-linejoin="round"/><path d="M286.9,218.62127c-4.7,3.8 -11.9,3.9 -11.9,3.9" fill="none" fill-rule="evenodd" stroke="#001026" stroke-width="1.2" stroke-linecap="round" stroke-linejoin="round"/><path d="M285.6,229.82127c-6.3,0.5 -10.2,-1.4 -10.2,-1.4" fill="none" fill-rule="evenodd" stroke="#001026" stroke-width="1.2" stroke-linecap="round" stroke-linejoin="round"/><path d="M251.6,219.82127c2.1,0 4.3,0.2 4.4,0.9c0.1,1.4 -1.4,4.2 -3,4.3c-1.8,0.2 -6,-2.3 -6,-3.9c-0.1,-1.2 2.6,-1.3 4.6,-1.3z" fill="#001026" fill-rule="evenodd" stroke="#001026" stroke-width="1.2" stroke-linecap="round" stroke-linejoin="round"/><path d="M206.6,218.32127c0,0 8.6,2.8 12.1,5.9" fill="none" fill-rule="evenodd" stroke="#001026" stroke-width="1.2" stroke-linecap="round" stroke-linejoin="round"/><path d="M219,227.72127c-4.3,1.7 -11.7,0.6 -11.7,0.6" fill="none" fill-rule="evenodd" stroke="#001026" stroke-width="1.2" stroke-linecap="round" stroke-linejoin="round"/><path d="M254.31398,238.43055c0,0 -1.76474,1.65982 -3.41743,1.86641c-1.18214,0.14776 -5.28816,-0.18146 -5.28816,-0.18146c0,0 -3.01591,-0.84093 -3.95701,-1.33194c-1.16411,-0.60736 -2.7828,-2.59962 -2.7828,-2.59962l15.44541,2.24661z" fill="#ff46c3" fill-rule="nonzero" stroke="#001026" stroke-width="1.2" stroke-linecap="round" stroke-linejoin="miter"/></g></g></svg>