<svg version="1.1" xmlns="http://www.w3.org/2000/svg" xmlns:xlink="http://www.w3.org/1999/xlink" width="183.14003" height="120.71733" viewBox="0,0,183.14003,120.71733"><defs><linearGradient x1="319.34181" y1="135.03784" x2="319.34181" y2="170.38106" gradientUnits="userSpaceOnUse" id="color-1"><stop offset="0" stop-color="#ffbc57"/><stop offset="1" stop-color="#ff9700"/></linearGradient><linearGradient x1="335.3577" y1="147.65621" x2="335.3577" y2="201.10029" gradientUnits="userSpaceOnUse" id="color-2"><stop offset="0" stop-color="#ffae37"/><stop offset="1" stop-color="#ff9700"/></linearGradient></defs><g transform="translate(-272.81921,-133.63574)"><g data-paper-data="{&quot;isPaintingLayer&quot;:true}" fill-rule="nonzero" stroke-linejoin="miter" stroke-miterlimit="10" stroke-dasharray="" stroke-dashoffset="0" style="mix-blend-mode: normal"><path d="M367.32073,181.55662c0,25.81972 -20.93103,46.75075 -46.75076,46.75075c-25.81973,0 -46.75076,-20.93103 -46.75076,-46.75076c0,-25.81973 20.93103,-46.75076 46.75076,-46.75076c19.41804,0 36.07104,11.83852 43.13517,28.69175c2.32889,5.55614 3.61559,11.65731 3.61559,18.059z" data-paper-data="{&quot;index&quot;:null}" fill="#f2e1d8" stroke="#000000" stroke-width="2" stroke-linecap="butt"/><path d="M275.74513,177.95281c3.54653,-0.12309 23.75821,0.21109 23.75821,0.21109" data-paper-data="{&quot;index&quot;:null}" fill="none" stroke-opacity="0.90196" stroke="#ff0000" stroke-width="3" stroke-linecap="round"/><path d="M320.74,134.72672c29.73663,2.03468 40.99664,25.16317 40.99664,25.16317c0,0 -8.13439,6.83949 -14.6606,6.7052c-3.74001,-0.07695 -8.50799,-7.03718 -15.94166,-7.91639c-3.36632,-0.39815 -7.31557,6.65525 -11.00897,6.46551c-3.98568,-0.20477 -8.04668,-5.6323 -11.97301,-6.17927c-6.04407,-0.84199 -10.10232,6.55134 -14.74202,6.52071c-6.60227,-0.0436 -12.67374,-7.26243 -12.67374,-7.26243c0,0 13.8062,-25.28901 40.00336,-23.4965z" data-paper-data="{&quot;index&quot;:null}" fill="#ff9700" stroke="#000000" stroke-width="2" stroke-linecap="round"/><path d="M319.99294,181.88993l7.77406,-0.33334" data-paper-data="{&quot;index&quot;:null}" fill="none" stroke="#00b209" stroke-width="4" stroke-linecap="round"/><path d="M301.06595,193.44905l-2.38525,-21.87197h22.43432l-2.38525,21.87197z" data-paper-data="{&quot;index&quot;:null}" fill="none" stroke="#00b209" stroke-width="4" stroke-linecap="butt"/><path d="M328.95622,193.44905l-2.38524,-21.87197h22.23243l-2.18336,21.87197z" data-paper-data="{&quot;index&quot;:null}" fill="none" stroke="#00b209" stroke-width="4" stroke-linecap="butt"/><path d="M360.88334,158.53445c0,0 -6.07147,7.21883 -12.67374,7.26243c-4.6397,0.03063 -8.69795,-7.3627 -14.74202,-6.52071c-3.92633,0.54697 -7.98733,5.9745 -11.97301,6.17927c-3.6934,0.18974 -7.98982,-0.9617 -11.35614,-0.56355c-7.43367,0.87921 -13.24318,5.40922 -16.98319,5.48617c-6.52621,0.13429 -15.35495,-4.27498 -15.35495,-4.27498c0,0 8.48262,-29.37763 43.07969,-31.06513c26.89151,-0.05664 40.00336,23.4965 40.00336,23.4965z" data-paper-data="{&quot;index&quot;:null}" fill="url(#color-1)" stroke="#000000" stroke-width="2" stroke-linecap="round"/><path d="M352.04245,147.6562c0,0 11.39153,8.4907 14.24939,22.98463c1.63718,7.64016 -1.05676,24.57824 -1.05676,24.57824c0,0 -6.03529,14.54925 -9.38603,14.66094c-0.44128,0.01471 -18.0307,-13.96659 -18.0307,-13.96659l-27.33637,-30.57944" data-paper-data="{&quot;index&quot;:null}" fill="url(#color-2)" stroke="#000000" stroke-width="2" stroke-linecap="round"/><text transform="translate(288.97781,178.95564) scale(0.07962,0.07962)" font-size="40" xml:space="preserve" data-paper-data="{&quot;index&quot;:null}" fill="#003aff" fill-rule="nonzero" stroke="none" stroke-width="1" stroke-linecap="butt" stroke-linejoin="miter" stroke-miterlimit="10" stroke-dasharray="" stroke-dashoffset="0" font-family="Serif" font-weight="normal" text-anchor="start" style="mix-blend-mode: normal"><tspan x="0" dy="0">DB&lt;3</tspan></text><path d="M365.67369,228.75154c0,-8.70207 7.05442,-15.75648 15.75648,-15.75648c8.70207,0 15.75648,7.05442 15.75648,15.75648c0,8.70207 -7.05442,15.75648 -15.75648,15.75648c-8.70207,0 -15.75648,-7.05442 -15.75648,-15.75648z" data-paper-data="{&quot;index&quot;:null}" fill="#f2e1d8" stroke="#000000" stroke-width="2" stroke-linecap="butt"/><path d="M313.39253,175.22542l0.66667,16.33334" data-paper-data="{&quot;index&quot;:null}" fill="none" stroke="#000000" stroke-width="3.5" stroke-linecap="round"/><path d="M338.48801,252.60307l-29.39332,-8.39809h104.97613l29.39332,8.39809z" fill="#2c2c2c" stroke="#000000" stroke-width="3.5" stroke-linecap="butt"/><path d="M315.12797,232.95059c0,-8.70207 7.05442,-15.75648 15.75648,-15.75648c8.70207,0 15.75648,7.05442 15.75648,15.75648c0,8.70207 -7.05442,15.75648 -15.75648,15.75648c-8.70207,0 -15.75648,-7.05442 -15.75648,-15.75648z" data-paper-data="{&quot;index&quot;:null}" fill="#f2e1d8" stroke="#000000" stroke-width="2" stroke-linecap="butt"/><path d="M344.98939,199.55724c0,0 -1.11572,16.10593 -15.74876,15.59778c-17.13211,-0.59493 -19.32162,-15.59778 -19.32162,-15.59778c0,0 1.83955,16.00792 19.89561,15.57967c14.12275,-0.33496 15.17477,-15.57967 15.17477,-15.57967z" data-paper-data="{&quot;index&quot;:null}" fill="#c54444" stroke="#000000" stroke-width="2" stroke-linecap="round"/><path d="M338.48801,252.60307v-69.80912h104.97613v69.80912z" fill="#bbbbbb" stroke="#000000" stroke-width="3.5" stroke-linecap="butt"/><text transform="translate(355.53538,206.39922) rotate(9.11796) scale(0.33895,0.33895)" font-size="40" xml:space="preserve" fill="#00b1ff" fill-rule="nonzero" stroke="#000000" stroke-width="1" stroke-linecap="butt" stroke-linejoin="miter" stroke-miterlimit="10" stroke-dasharray="" stroke-dashoffset="0" font-family="Pixel" font-weight="normal" text-anchor="start" style="mix-blend-mode: normal"><tspan x="0" dy="0">not a real </tspan><tspan x="0" dy="46.150000000000006px">laptop-OS</tspan></text></g></g></svg>