<svg version="1.1" xmlns="http://www.w3.org/2000/svg" xmlns:xlink="http://www.w3.org/1999/xlink" width="118.45752" height="108.39072" viewBox="0,0,118.45752,108.39072"><defs><linearGradient x1="238.31246" y1="133.2551" x2="238.31246" y2="168.59832" gradientUnits="userSpaceOnUse" id="color-1"><stop offset="0" stop-color="#ffbc57"/><stop offset="1" stop-color="#ff9700"/></linearGradient><linearGradient x1="260.91462" y1="145.87346" x2="260.91462" y2="199.31754" gradientUnits="userSpaceOnUse" id="color-2"><stop offset="0" stop-color="#ffae37"/><stop offset="1" stop-color="#ff9700"/></linearGradient><radialGradient cx="264.81416" cy="152.63357" r="20.94221" gradientUnits="userSpaceOnUse" id="color-3"><stop offset="0" stop-color="#feffd5"/><stop offset="1" stop-color="#fffd00"/></radialGradient><radialGradient cx="284.05879" cy="135.67257" r="14.12293" gradientUnits="userSpaceOnUse" id="color-4"><stop offset="0" stop-color="#feffd5"/><stop offset="1" stop-color="#fffd00"/></radialGradient><radialGradient cx="285.04553" cy="166.74492" r="7.99185" gradientUnits="userSpaceOnUse" id="color-5"><stop offset="0" stop-color="#feffd5"/><stop offset="1" stop-color="#fffd00"/></radialGradient></defs><g transform="translate(-185.47371,-119.44509)"><g data-paper-data="{&quot;isPaintingLayer&quot;:true}" fill-rule="nonzero" stroke-linejoin="miter" stroke-miterlimit="10" stroke-dasharray="" stroke-dashoffset="0" style="mix-blend-mode: normal"><path d="M193.26989,180.08504c0,-25.81973 20.93103,-46.75075 46.75076,-46.75075c25.81973,0 46.75076,20.93103 46.75076,46.75076c0,25.81973 -20.93103,46.75076 -46.75076,46.75076c-25.81973,0 -46.75076,-20.93103 -46.75076,-46.75075z" fill="#f2e1d8" stroke="#000000" stroke-width="2" stroke-linecap="butt"/><path d="M286.81269,180.7517l-22.33333,-0.66666" data-paper-data="{&quot;index&quot;:null}" fill="none" stroke="#000000" stroke-width="2" stroke-linecap="round"/><path d="M259.05219,199.55724c0,0 -1.4723,14.2783 -18.60441,14.87323c-14.63304,0.50815 -16.46597,-14.87323 -16.46597,-14.87323z" fill="#c54444" stroke="#000000" stroke-width="2" stroke-linecap="round"/><path d="M251.75813,210.24426c-3.41802,2.41762 -12.25813,3.25575 -12.25813,3.25575c0,0 2.51023,-7.78284 5.94536,-10.21257c3.39779,-2.40332 13.55464,-3.78743 13.55464,-3.78743c0,0 -3.82656,8.32854 -7.24187,10.74425z" fill="#ff79eb" stroke="#000000" stroke-width="2" stroke-linecap="round"/><path d="M193.63967,181.65645c0,0 2.74615,-5.09482 5.06136,-5.17517c3.54653,-0.12309 13.69504,0.21109 13.69504,0.21109" fill="none" stroke-opacity="0.90196" stroke="#ff0000" stroke-width="3" stroke-linecap="round"/><path d="M244.39608,180.08506l-8.70934,0.33334" fill="none" stroke="#00b209" stroke-width="4" stroke-linecap="round"/><path d="M245.72837,191.97752l-2.67221,-21.87197h24.90716l-2.44603,21.87197z" fill="none" stroke="#00b209" stroke-width="4" stroke-linecap="butt"/><path d="M214.4827,191.97752l-2.67221,-21.87197h25.13335l-2.67221,21.87197z" fill="none" stroke="#00b209" stroke-width="4" stroke-linecap="butt"/><path d="M279.85398,156.7517c0,0 -6.07147,7.21883 -12.67374,7.26243c-4.6397,0.03063 -8.69795,-7.3627 -14.74202,-6.52071c-3.92633,0.54697 -7.98733,5.9745 -11.97301,6.17927c-3.6934,0.18974 -7.98982,-0.9617 -11.35614,-0.56355c-7.43367,0.87921 -13.24318,5.40922 -16.98319,5.48617c-6.52621,0.13429 -15.35495,-4.27498 -15.35495,-4.27498c0,0 8.48262,-29.37763 43.07969,-31.06513c26.89151,-0.05664 40.00336,23.4965 40.00336,23.4965z" fill="url(#color-1)" stroke="#000000" stroke-width="2" stroke-linecap="round"/><path d="M271.01309,145.87346c0,0 11.39153,8.4907 14.24939,22.98463c1.63718,7.64016 -1.05676,24.57824 -1.05676,24.57824c0,0 -6.03529,5.76754 -9.38603,5.87923c-3.57784,0.11926 -11.44442,-5.18488 -11.44442,-5.18488l-27.33637,-30.57944" fill="url(#color-2)" stroke="#000000" stroke-width="2" stroke-linecap="round"/><path d="M189.067,198.7718c0,0 -3.59329,-8.14823 -3.59329,-11.73809c0,-3.74948 3.59329,-10.30078 3.59329,-10.30078h11.01944v22.03887z" fill="#232323" stroke="none" stroke-width="NaN" stroke-linecap="butt"/><path d="M279.88558,198.7718v-22.03887h11.01943c0,0 3.5933,6.5513 3.5933,10.30078c0,3.58986 -3.5933,11.73809 -3.5933,11.73809z" data-paper-data="{&quot;index&quot;:null}" fill="#232323" stroke="none" stroke-width="NaN" stroke-linecap="butt"/><path d="M195.05582,176.27183c0,0 5.06123,-42.28988 46.02217,-42.02644c38.26994,0.24614 43.8102,42.26599 43.8102,42.26599" data-paper-data="{&quot;index&quot;:null}" fill="none" stroke="#232323" stroke-width="5" stroke-linecap="round"/><path d="M284.16953,194.93896c0,0 -4.24624,12.87015 -8.26458,16.88849c-3.83877,3.83877 -19.64334,5.50972 -19.64334,5.50972" fill="none" stroke="#000000" stroke-width="1.5" stroke-linecap="round"/><path d="M248.23659,221.05023c-1.94244,-0.94497 -3.35375,-2.84275 -3.35375,-3.83285c0,-0.90265 1.22869,-2.21045 2.63509,-2.8279c1.4064,-0.61745 3.46192,-0.95821 5.98883,-0.95821c2.32762,0 7.18659,1.19777 7.18659,1.19777v5.70253c0,0 -4.53188,1.19777 -6.94704,1.19777c-2.45509,0 -3.56727,0.46587 -5.50971,-0.47911z" fill="#000000" stroke="#000000" stroke-width="0.5" stroke-linecap="butt"/><text transform="translate(202.10759,177.4841) scale(0.07962,0.07962)" font-size="40" xml:space="preserve" fill="#003aff" fill-rule="nonzero" stroke="none" stroke-width="1" stroke-linecap="butt" stroke-linejoin="miter" stroke-miterlimit="10" stroke-dasharray="" stroke-dashoffset="0" font-family="Serif" font-weight="normal" text-anchor="start" style="mix-blend-mode: normal"><tspan x="0" dy="0">DB&lt;3</tspan></text><path d="M269.12943,182.26337c0,0 -2.49074,-15.6251 -5.74113,-19.81088c-3.67748,-4.73578 -15.20109,-7.158 -15.20109,-7.158c0,0 11.72608,-3.12646 15.20109,-7.60149c3.50546,-4.51425 5.74113,-19.36739 5.74113,-19.36739c0,0 0.84934,14.84182 4.35308,19.35385c3.47679,4.47733 16.58913,7.61503 16.58913,7.61503c0,0 -12.99015,2.98035 -16.76132,7.83677c-3.05976,3.94028 -4.18089,19.13211 -4.18089,19.13211z" fill="url(#color-3)" stroke="#a68800" stroke-width="1" stroke-linecap="butt"/><path d="M286.96891,150.9247c0,0 -1.67969,-8.04313 -3.87168,-10.19778c-2.48001,-2.43777 -10.25125,-3.68463 -10.25125,-3.68463c0,0 7.90779,-1.60936 10.25125,-3.91291c2.364,-2.32374 3.87168,-9.96949 3.87168,-9.96949c0,0 0.57277,7.63992 2.93561,9.96252c2.34467,2.30473 11.18731,3.91988 11.18731,3.91988c0,0 -8.76024,1.53415 -11.30343,4.03403c-2.06343,2.02829 -2.8195,9.84838 -2.8195,9.84838z" fill="url(#color-4)" stroke="#a68800" stroke-width="1" stroke-linecap="butt"/><path d="M286.6923,175.37575c0,0 -0.9505,-4.55143 -2.1909,-5.7707c-1.40338,-1.37948 -5.80095,-2.08504 -5.80095,-2.08504c0,0 4.47483,-0.9107 5.80095,-2.21423c1.33774,-1.31495 2.1909,-5.6415 2.1909,-5.6415c0,0 0.32412,4.32326 1.6612,5.63756c1.3268,1.30419 6.33065,2.21818 6.33065,2.21818c0,0 -4.95723,0.86814 -6.39636,2.28276c-1.16765,1.14776 -1.59549,5.57298 -1.59549,5.57298z" fill="url(#color-5)" stroke="#a68800" stroke-width="1" stroke-linecap="butt"/></g></g></svg>