<svg version="1.1" xmlns="http://www.w3.org/2000/svg" xmlns:xlink="http://www.w3.org/1999/xlink" width="95.67302" height="95.67162" viewBox="0,0,95.67302,95.67162"><defs><linearGradient x1="318.31245" y1="133.25508" x2="318.31245" y2="168.5983" gradientUnits="userSpaceOnUse" id="color-1"><stop offset="0" stop-color="#ffbc57"/><stop offset="1" stop-color="#ff9700"/></linearGradient><linearGradient x1="340.91462" y1="145.87345" x2="340.91462" y2="199.31753" gradientUnits="userSpaceOnUse" id="color-2"><stop offset="0" stop-color="#ffae37"/><stop offset="1" stop-color="#ff9700"/></linearGradient></defs><g transform="translate(-272.13967,-132.16421)"><g data-paper-data="{&quot;isPaintingLayer&quot;:true}" fill-rule="nonzero" stroke-linejoin="miter" stroke-miterlimit="10" stroke-dasharray="" stroke-dashoffset="0" style="mix-blend-mode: normal"><path d="M273.26989,180.08506c0,-6.40169 1.2867,-12.50286 3.61559,-18.059c7.06413,-16.85323 23.71713,-28.69175 43.13517,-28.69175c25.81973,0 46.75076,20.93103 46.75076,46.75076c0,25.81973 -20.93103,46.75076 -46.75076,46.75076c-25.81973,0 -46.75076,-20.93103 -46.75076,-46.75075z" fill="#f2e1d8" stroke="#000000" stroke-width="2" stroke-linecap="butt"/><path d="M273.63967,181.65644c0,0 2.74616,-5.09482 5.06137,-5.17517c3.54653,-0.12309 13.69504,0.21109 13.69504,0.21109" fill="none" stroke-opacity="0.90196" stroke="#ff0000" stroke-width="3" stroke-linecap="round"/><path d="M366.81269,180.75172l-22.33333,-0.66666" data-paper-data="{&quot;index&quot;:null}" fill="none" stroke="#000000" stroke-width="2" stroke-linecap="round"/><path d="M324.39608,180.08505l-8.70934,0.33334" fill="none" stroke="#00b209" stroke-width="4" stroke-linecap="round"/><path d="M335.51819,201.05726c0,0 -1.30295,9.96187 -16.46442,10.37695c-12.94986,0.35453 -14.57196,-10.37695 -14.57196,-10.37695" fill="none" stroke="#000000" stroke-width="2" stroke-linecap="round"/><path d="M359.85398,156.75169c0,0 -6.07147,7.21883 -12.67374,7.26243c-4.6397,0.03063 -8.69795,-7.3627 -14.74202,-6.52071c-3.92633,0.54697 -7.98733,5.9745 -11.97301,6.17927c-3.6934,0.18974 -7.64265,-6.86366 -11.00897,-6.46551c-7.43367,0.87921 -12.20165,7.83944 -15.94166,7.91639c-6.52621,0.13429 -14.6606,-6.7052 -14.6606,-6.7052c0,0 11.26001,-23.12849 40.99664,-25.16317c26.19716,-1.79251 40.00336,23.4965 40.00336,23.4965z" fill="#ff9700" stroke="#000000" stroke-width="2" stroke-linecap="round"/><path d="M294.4827,191.97751l-2.67221,-21.87197h25.13334l-2.67221,21.87197z" fill="none" stroke="#00b209" stroke-width="4" stroke-linecap="butt"/><path d="M359.85398,156.75169c0,0 -6.07147,7.21883 -12.67374,7.26243c-4.6397,0.03063 -8.69795,-7.3627 -14.74202,-6.52071c-3.92633,0.54697 -7.98733,5.9745 -11.97301,6.17927c-3.6934,0.18974 -7.98982,-0.9617 -11.35614,-0.56355c-7.43367,0.87921 -13.24318,5.40922 -16.98319,5.48617c-6.52621,0.13429 -15.35495,-4.27498 -15.35495,-4.27498c0,0 8.48262,-29.37763 43.07969,-31.06513c26.89151,-0.05664 40.00336,23.4965 40.00336,23.4965z" fill="url(#color-1)" stroke="#000000" stroke-width="2" stroke-linecap="round"/><path d="M325.72837,191.97751l-2.6722,-21.87197h24.90716l-2.44603,21.87197z" fill="none" stroke="#00b209" stroke-width="4" stroke-linecap="butt"/><path d="M351.01309,145.87345c0,0 11.39153,8.4907 14.24939,22.98463c1.63718,7.64016 -1.05676,24.57824 -1.05676,24.57824c0,0 -6.03529,5.76754 -9.38603,5.87923c-3.57784,0.11926 -11.44442,-5.18488 -11.44442,-5.18488l-27.33637,-30.57944" fill="url(#color-2)" stroke="#000000" stroke-width="2" stroke-linecap="round"/><text transform="translate(282.10759,177.4841) scale(0.07962,0.07962)" font-size="40" xml:space="preserve" fill="#003aff" fill-rule="nonzero" stroke="none" stroke-width="1" stroke-linecap="butt" stroke-linejoin="miter" stroke-miterlimit="10" stroke-dasharray="" stroke-dashoffset="0" font-family="Serif" font-weight="normal" text-anchor="start" style="mix-blend-mode: normal"><tspan x="0" dy="0">DB&lt;3</tspan></text><path d="M304.48753,189.42945l-0.66667,-16.33334" fill="none" stroke="#000000" stroke-width="3.5" stroke-linecap="round"/></g></g></svg>