<svg version="1.1" xmlns="http://www.w3.org/2000/svg" xmlns:xlink="http://www.w3.org/1999/xlink" width="95.67302" height="99.79289" viewBox="0,0,95.67302,99.79289"><defs><linearGradient x1="318.31246" y1="133.2551" x2="318.31246" y2="168.59832" gradientUnits="userSpaceOnUse" id="color-1"><stop offset="0" stop-color="#ffbc57"/><stop offset="1" stop-color="#ff9700"/></linearGradient><linearGradient x1="340.91462" y1="145.87346" x2="340.91462" y2="199.31754" gradientUnits="userSpaceOnUse" id="color-2"><stop offset="0" stop-color="#ffae37"/><stop offset="1" stop-color="#ff9700"/></linearGradient><linearGradient x1="357.9305" y1="131.189" x2="357.9305" y2="170.78432" gradientTransform="translate(-408.24331,-187.51889) scale(1.16556,1.16556)" gradientUnits="userSpaceOnUse" id="color-3"><stop offset="0" stop-color="#00aeff"/><stop offset="1" stop-color="#87fffd"/></linearGradient><linearGradient x1="357.9305" y1="131.189" x2="357.9305" y2="170.78432" gradientTransform="translate(-408.24331,-187.51889) scale(1.16556,1.16556)" gradientUnits="userSpaceOnUse" id="color-4"><stop offset="0" stop-color="#5c8bff"/><stop offset="1" stop-color="#3c00ff"/></linearGradient></defs><g transform="translate(-272.13967,-128.0429)"><g data-paper-data="{&quot;isPaintingLayer&quot;:true}" fill-rule="nonzero" stroke-linejoin="miter" stroke-miterlimit="10" stroke-dasharray="" stroke-dashoffset="0" style="mix-blend-mode: normal"><path d="M273.26989,180.08503c0,-25.81973 20.93103,-46.75075 46.75076,-46.75075c25.81973,0 46.75076,20.93103 46.75076,46.75076c0,25.81973 -20.93103,46.75076 -46.75076,46.75076c-25.81973,0 -46.75076,-20.93103 -46.75076,-46.75075z" fill="#f2e1d8" stroke="#000000" stroke-width="2" stroke-linecap="butt"/><path d="M359.85398,156.75169c0,0 -6.07147,7.21883 -12.67374,7.26243c-4.6397,0.03063 -8.69795,-7.3627 -14.74202,-6.52071c-3.92633,0.54697 -7.98733,5.9745 -11.97301,6.17927c-3.6934,0.18974 -7.64265,-6.86366 -11.00897,-6.46551c-7.43367,0.87921 -12.20165,7.83944 -15.94166,7.91639c-6.52621,0.13429 -14.6606,-6.7052 -14.6606,-6.7052c0,0 11.26001,-23.12849 40.99664,-25.16317c26.19716,-1.79251 40.00336,23.4965 40.00336,23.4965z" fill="#ff9700" stroke="#000000" stroke-width="2" stroke-linecap="round"/><path d="M344.47936,180.08503l22.33333,0.66666" data-paper-data="{&quot;index&quot;:null}" fill="none" stroke="#000000" stroke-width="2" stroke-linecap="round"/><path d="M304.13743,206.27705c0,0 2.31086,-1.08882 15.26072,-0.73429c15.16147,0.41508 15.77566,0.73429 15.77566,0.73429" data-paper-data="{&quot;index&quot;:null}" fill="none" stroke="#000000" stroke-width="2" stroke-linecap="round"/><path d="M273.63967,181.65645c0,0 2.74615,-5.09482 5.06136,-5.17517c3.54653,-0.12309 13.69504,0.21109 13.69504,0.21109" fill="none" stroke-opacity="0.90196" stroke="#ff0000" stroke-width="3" stroke-linecap="round"/><path d="M315.68674,180.4184l8.70934,-0.33334" fill="none" stroke="#00b209" stroke-width="4" stroke-linecap="round"/><path d="M325.72837,191.97752l-2.67221,-21.87197h24.90716l-2.44603,21.87197z" fill="none" stroke="#00b209" stroke-width="4" stroke-linecap="butt"/><path d="M294.4827,191.97752l-2.67221,-21.87197h25.13335l-2.67221,21.87197z" fill="none" stroke="#00b209" stroke-width="4" stroke-linecap="butt"/><path d="M359.85398,156.7517c0,0 -6.07147,7.21883 -12.67374,7.26243c-4.6397,0.03063 -8.69795,-7.3627 -14.74202,-6.52071c-3.92633,0.54697 -7.98733,5.9745 -11.97301,6.17927c-3.6934,0.18974 -7.98982,-0.9617 -11.35614,-0.56355c-7.43367,0.87921 -13.24318,5.40922 -16.98319,5.48617c-6.52621,0.13429 -15.35495,-4.27498 -15.35495,-4.27498c0,0 8.48262,-29.37763 43.07969,-31.06513c26.89151,-0.05664 40.00336,23.4965 40.00336,23.4965z" fill="url(#color-1)" stroke="#000000" stroke-width="2" stroke-linecap="round"/><path d="M351.01309,145.87346c0,0 11.39153,8.4907 14.24939,22.98463c1.63718,7.64016 -1.05676,24.57824 -1.05676,24.57824c0,0 -6.03529,5.76754 -9.38603,5.87923c-3.57784,0.11926 -11.44442,-5.18488 -11.44442,-5.18488l-27.33637,-30.57944" fill="url(#color-2)" stroke="#000000" stroke-width="2" stroke-linecap="round"/><text transform="translate(282.10759,177.4841) scale(0.07962,0.07962)" font-size="40" xml:space="preserve" fill="#003aff" fill-rule="nonzero" stroke="none" stroke-width="1" stroke-linecap="butt" stroke-linejoin="miter" stroke-miterlimit="10" stroke-dasharray="" stroke-dashoffset="0" font-family="Serif" font-weight="normal" text-anchor="start" style="mix-blend-mode: normal"><tspan x="0" dy="0">DB&lt;3</tspan></text><text transform="translate(350.25643,160.88371) scale(0.85796,0.85796)" font-size="40" xml:space="preserve" fill="url(#color-3)" fill-rule="nonzero" stroke="url(#color-4)" stroke-width="1" stroke-linecap="butt" stroke-linejoin="miter" stroke-miterlimit="10" stroke-dasharray="" stroke-dashoffset="0" font-family="Handwriting" font-weight="normal" text-anchor="start" style="mix-blend-mode: normal"><tspan x="0" dy="0">?</tspan></text><path d="M301.66187,172.01662l0.66667,14.7141" fill="none" stroke="#000000" stroke-width="3.5" stroke-linecap="round"/><path d="M311.32286,169.77302c0,0 -5.08763,1.11416 -7.58107,1.43042c-2.62935,0.33349 -7.80893,0.52156 -7.80893,0.52156" data-paper-data="{&quot;index&quot;:null}" fill="none" stroke="#000000" stroke-width="2.5" stroke-linecap="round"/><path d="M330.52351,165.46504c0,0 5.53477,-1.12155 8.02821,-0.8053c2.62935,0.33349 7.36179,2.75728 7.36179,2.75728" data-paper-data="{&quot;index&quot;:null}" fill="none" stroke="#000000" stroke-width="2.5" stroke-linecap="round"/></g></g></svg>