<svg version="1.1" xmlns="http://www.w3.org/2000/svg" xmlns:xlink="http://www.w3.org/1999/xlink" width="109.0246" height="96.09164" viewBox="0,0,109.0246,96.09164"><defs><linearGradient x1="238.31246" y1="133.2551" x2="238.31246" y2="168.59832" gradientUnits="userSpaceOnUse" id="color-1"><stop offset="0" stop-color="#ffbc57"/><stop offset="1" stop-color="#ff9700"/></linearGradient><linearGradient x1="260.91462" y1="145.87346" x2="260.91462" y2="199.31754" gradientUnits="userSpaceOnUse" id="color-2"><stop offset="0" stop-color="#ffae37"/><stop offset="1" stop-color="#ff9700"/></linearGradient></defs><g transform="translate(-185.47371,-131.74417)"><g data-paper-data="{&quot;isPaintingLayer&quot;:true}" fill-rule="nonzero" stroke-linejoin="miter" stroke-miterlimit="10" stroke-dasharray="" stroke-dashoffset="0" style="mix-blend-mode: normal"><path d="M193.26989,180.08503c0,-25.81973 20.93103,-46.75075 46.75076,-46.75075c25.81973,0 46.75076,20.93103 46.75076,46.75076c0,25.81973 -20.93103,46.75076 -46.75076,46.75076c-25.81973,0 -46.75076,-20.93103 -46.75076,-46.75075z" fill="#f2e1d8" stroke="#000000" stroke-width="2" stroke-linecap="butt"/><path d="M279.85398,156.75169c0,0 -6.07147,7.21883 -12.67374,7.26243c-4.6397,0.03063 -8.69795,-7.3627 -14.74202,-6.52071c-3.92633,0.54697 -7.98733,5.9745 -11.97301,6.17927c-3.6934,0.18974 -7.64265,-6.86366 -11.00897,-6.46551c-7.43367,0.87921 -12.20165,7.83944 -15.94166,7.91639c-6.52621,0.13429 -14.6606,-6.7052 -14.6606,-6.7052c0,0 11.26001,-23.12849 40.99664,-25.16317c26.19716,-1.79251 40.00336,23.4965 40.00336,23.4965z" fill="#ff9700" stroke="#000000" stroke-width="2" stroke-linecap="round"/><path d="M286.81269,180.75169l-22.33333,-0.66666" data-paper-data="{&quot;index&quot;:null}" fill="none" stroke="#000000" stroke-width="2" stroke-linecap="round"/><path d="M224.48181,211.44277c0,0 1.6221,-10.73148 14.57196,-10.37695c15.16147,0.41508 16.46442,10.37695 16.46442,10.37695" data-paper-data="{&quot;index&quot;:null}" fill="none" stroke="#000000" stroke-width="2" stroke-linecap="round"/><path d="M193.63967,181.65645c0,0 2.74615,-5.09482 5.06136,-5.17517c3.54653,-0.12309 13.69504,0.21109 13.69504,0.21109" fill="none" stroke-opacity="0.90196" stroke="#ff0000" stroke-width="3" stroke-linecap="round"/><path d="M244.39608,180.08506l-8.70934,0.33334" fill="none" stroke="#00b209" stroke-width="4" stroke-linecap="round"/><path d="M245.72837,191.97752l-2.67221,-21.87197h24.90716l-2.44603,21.87197z" fill="none" stroke="#00b209" stroke-width="4" stroke-linecap="butt"/><path d="M214.4827,191.97752l-2.67221,-21.87197h25.13335l-2.67221,21.87197z" fill="none" stroke="#00b209" stroke-width="4" stroke-linecap="butt"/><path d="M279.85398,156.7517c0,0 -6.07147,7.21883 -12.67374,7.26243c-4.6397,0.03063 -8.69795,-7.3627 -14.74202,-6.52071c-3.92633,0.54697 -7.98733,5.9745 -11.97301,6.17927c-3.6934,0.18974 -7.98982,-0.9617 -11.35614,-0.56355c-7.43367,0.87921 -13.24318,5.40922 -16.98319,5.48617c-6.52621,0.13429 -15.35495,-4.27498 -15.35495,-4.27498c0,0 8.48262,-29.37763 43.07969,-31.06513c26.89151,-0.05664 40.00336,23.4965 40.00336,23.4965z" fill="url(#color-1)" stroke="#000000" stroke-width="2" stroke-linecap="round"/><path d="M271.01309,145.87346c0,0 11.39153,8.4907 14.24939,22.98463c1.63718,7.64016 -1.05676,24.57824 -1.05676,24.57824c0,0 -6.03529,5.76754 -9.38603,5.87923c-3.57784,0.11926 -11.44442,-5.18488 -11.44442,-5.18488l-27.33637,-30.57944" fill="url(#color-2)" stroke="#000000" stroke-width="2" stroke-linecap="round"/><path d="M189.067,198.7718c0,0 -3.59329,-8.14823 -3.59329,-11.73809c0,-3.74948 3.59329,-10.30078 3.59329,-10.30078h11.01944v22.03887z" fill="#232323" stroke="none" stroke-width="NaN" stroke-linecap="butt"/><path d="M279.88558,198.7718v-22.03887h11.01943c0,0 3.5933,6.5513 3.5933,10.30078c0,3.58986 -3.5933,11.73809 -3.5933,11.73809z" data-paper-data="{&quot;index&quot;:null}" fill="#232323" stroke="none" stroke-width="NaN" stroke-linecap="butt"/><path d="M195.05582,176.27183c0,0 5.06123,-42.28988 46.02217,-42.02644c38.26994,0.24614 43.8102,42.26599 43.8102,42.26599" data-paper-data="{&quot;index&quot;:null}" fill="none" stroke="#232323" stroke-width="5" stroke-linecap="round"/><text transform="translate(202.10759,177.4841) scale(0.07962,0.07962)" font-size="40" xml:space="preserve" fill="#003aff" fill-rule="nonzero" stroke="none" stroke-width="1" stroke-linecap="butt" stroke-linejoin="miter" stroke-miterlimit="10" stroke-dasharray="" stroke-dashoffset="0" font-family="Serif" font-weight="normal" text-anchor="start" style="mix-blend-mode: normal"><tspan x="0" dy="0">DB&lt;3</tspan></text><path d="M284.16953,194.93895c0,0 -4.24624,12.87015 -8.26458,16.88849c-3.83877,3.83877 -19.64334,5.50972 -19.64334,5.50972" fill="none" stroke="#000000" stroke-width="1.5" stroke-linecap="round"/><path d="M248.23659,221.05022c-1.94244,-0.94497 -3.35375,-2.84275 -3.35375,-3.83285c0,-0.90265 1.22869,-2.21045 2.63509,-2.8279c1.4064,-0.61745 3.46192,-0.95821 5.98883,-0.95821c2.32762,0 7.18659,1.19777 7.18659,1.19777v5.70253c0,0 -4.53188,1.19777 -6.94704,1.19777c-2.45509,0 -3.56727,0.46587 -5.50971,-0.47911z" fill="#000000" stroke="#000000" stroke-width="0.5" stroke-linecap="butt"/><path d="M266.4919,153.86261c0,0 6.09833,-2.56915 7.63679,-1.54977c1.77645,1.17708 2.411,8.20745 2.411,8.20745" fill="none" stroke="#ff0000" stroke-width="3" stroke-linecap="round"/><path d="M289.16362,149.26174c0,0 -7.57688,0.21239 -8.6865,1.88702c-0.45919,0.69301 2.02882,8.16077 2.02882,8.16077" fill="none" stroke="#ff0000" stroke-width="3" stroke-linecap="round"/><path d="M271.93883,137.84858c0,0 3.13843,6.48613 2.02882,8.16076c-1.10962,1.67463 -8.68649,1.88703 -8.68649,1.88703" fill="none" stroke="#ff0000" stroke-width="3" stroke-linecap="round"/><path d="M277.90507,136.63782c0,0 -0.36913,7.19156 1.16932,8.21094c1.77645,1.17708 8.87847,-1.55326 8.87847,-1.55326" fill="none" stroke="#ff0000" stroke-width="3" stroke-linecap="round"/></g></g></svg>